<svg width="25" height="25" viewBox="0 0 25 25" fill="none" xmlns="http://www.w3.org/2000/svg">
<path d="M16.2103 22.556V19.6171C16.2483 19.1288 16.1831 18.6379 16.0189 18.1771C15.8546 17.7163 15.5953 17.2961 15.258 16.9444C18.4392 16.586 21.7826 15.3674 21.7826 9.77627C21.7824 8.34657 21.2383 6.9717 20.2629 5.93622C20.7248 4.68539 20.6921 3.30281 20.1717 2.07568C20.1717 2.07568 18.9762 1.71727 16.2103 3.59122C13.8882 2.95512 11.4404 2.95512 9.11829 3.59122C6.3524 1.71727 5.15688 2.07568 5.15688 2.07568C4.6365 3.30281 4.60385 4.68539 5.0657 5.93622C4.08307 6.97938 3.5384 8.36668 3.54598 9.80699C3.54598 15.3572 6.88936 16.5757 10.0706 16.9751C9.73732 17.3232 9.48025 17.7384 9.31617 18.1936C9.15208 18.6488 9.08466 19.1338 9.11829 19.6171V22.556" stroke="#B6D7FF" stroke-width="1.5" stroke-linecap="round" stroke-linejoin="round"/>
<path d="M9.1184 20.508C6.07896 21.5043 3.54609 20.508 2.02637 17.4359" stroke="#B6D7FF" stroke-width="1.5" stroke-linecap="round" stroke-linejoin="round"/>
</svg>
