<svg width="57" height="51" viewBox="0 0 57 51" fill="none" xmlns="http://www.w3.org/2000/svg">
<g filter="url(#filter0_i_342_16)">
<path d="M28.5417 0.312195C13.1474 0.312195 0.678716 11.8235 0.678716 26.0358C0.675361 31.4356 2.51377 36.6992 5.93314 41.0801C9.35251 45.461 14.1792 48.7366 19.7286 50.4423C21.1218 50.6661 21.6456 49.8944 21.6456 49.2179C21.6456 48.6082 21.6094 46.5838 21.6094 44.4281C14.6102 45.6191 12.7991 42.8539 12.2418 41.4056C11.927 40.6648 10.5701 38.3831 9.38589 37.7709C8.41068 37.2899 7.01754 36.0988 9.34967 36.068C11.5453 36.0345 13.1112 37.9329 13.635 38.7046C16.1427 42.5941 20.1466 41.5008 21.7487 40.8268C21.9939 39.1548 22.7239 38.0307 23.5263 37.3876C17.3268 36.7445 10.8487 34.5246 10.8487 24.6853C10.8487 21.8866 11.927 19.574 13.7046 17.7708C13.426 17.1277 12.4508 14.491 13.9833 10.954C13.9833 10.954 16.3154 10.2801 21.6456 13.5933C23.9138 13.0121 26.2574 12.7196 28.6113 12.7238C30.9797 12.7238 33.348 13.0119 35.5771 13.5907C40.9072 10.2466 43.2394 10.9566 43.2394 10.9566C44.7718 14.4936 43.7966 17.1303 43.518 17.7734C45.2929 19.574 46.374 21.8557 46.374 24.6853C46.374 34.558 39.8624 36.7445 33.6601 37.3876C34.6715 38.1902 35.5436 39.7336 35.5436 42.1465C35.5436 45.5857 35.5074 48.351 35.5074 49.2205C35.5074 49.8944 36.0312 50.697 37.4244 50.4397C42.9547 48.7153 47.7602 45.4333 51.1645 41.0556C54.5687 36.6779 56.4005 31.4249 56.4018 26.0358C56.4018 11.8235 43.9332 0.312195 28.5389 0.312195H28.5417Z" fill="#51BFA6"/>
</g>
<defs>
<filter id="filter0_i_342_16" x="0.678711" y="0.312195" width="55.7227" height="54.1768" filterUnits="userSpaceOnUse" color-interpolation-filters="sRGB">
<feFlood flood-opacity="0" result="BackgroundImageFix"/>
<feBlend mode="normal" in="SourceGraphic" in2="BackgroundImageFix" result="shape"/>
<feColorMatrix in="SourceAlpha" type="matrix" values="0 0 0 0 0 0 0 0 0 0 0 0 0 0 0 0 0 0 127 0" result="hardAlpha"/>
<feOffset dy="4"/>
<feGaussianBlur stdDeviation="2"/>
<feComposite in2="hardAlpha" operator="arithmetic" k2="-1" k3="1"/>
<feColorMatrix type="matrix" values="0 0 0 0 0 0 0 0 0 0 0 0 0 0 0 0 0 0 0.25 0"/>
<feBlend mode="normal" in2="shape" result="effect1_innerShadow_342_16"/>
</filter>
</defs>
</svg>
