<svg width="57" height="51" viewBox="0 0 57 51" fill="none" xmlns="http://www.w3.org/2000/svg">
<g filter="url(#filter0_i_342_20)">
<path d="M28.5514 0.312195C13.1572 0.312195 0.688481 11.8235 0.688481 26.0358C0.685126 31.4356 2.52353 36.6992 5.94291 41.0801C9.36228 45.461 14.189 48.7366 19.7384 50.4423C21.1315 50.6661 21.6554 49.8944 21.6554 49.2179C21.6554 48.6082 21.6191 46.5838 21.6191 44.4281C14.62 45.6191 12.8089 42.8539 12.2516 41.4056C11.9368 40.6648 10.5798 38.3831 9.39565 37.7709C8.42045 37.2899 7.0273 36.0988 9.35943 36.068C11.555 36.0345 13.1209 37.9329 13.6448 38.7046C16.1524 42.5941 20.1563 41.5008 21.7584 40.8268C22.0036 39.1548 22.7336 38.0307 23.5361 37.3876C17.3366 36.7445 10.8585 34.5246 10.8585 24.6853C10.8585 21.8866 11.9368 19.574 13.7144 17.7708C13.4358 17.1277 12.4606 14.491 13.993 10.954C13.993 10.954 16.3252 10.2801 21.6554 13.5933C23.9236 13.0121 26.2671 12.7196 28.6211 12.7238C30.9894 12.7238 33.3578 13.0119 35.5868 13.5907C40.917 10.2466 43.2491 10.9566 43.2491 10.9566C44.7816 14.4936 43.8064 17.1303 43.5278 17.7734C45.3026 19.574 46.3837 21.8557 46.3837 24.6853C46.3837 34.558 39.8722 36.7445 33.6699 37.3876C34.6813 38.1902 35.5534 39.7336 35.5534 42.1465C35.5534 45.5857 35.5172 48.351 35.5172 49.2205C35.5172 49.8944 36.041 50.697 37.4341 50.4397C42.9645 48.7153 47.7699 45.4333 51.1742 41.0556C54.5785 36.6779 56.4102 31.4249 56.4116 26.0358C56.4116 11.8235 43.9429 0.312195 28.5486 0.312195H28.5514Z" fill="#51BFA6"/>
</g>
<defs>
<filter id="filter0_i_342_20" x="0.688477" y="0.312195" width="55.7227" height="54.1768" filterUnits="userSpaceOnUse" color-interpolation-filters="sRGB">
<feFlood flood-opacity="0" result="BackgroundImageFix"/>
<feBlend mode="normal" in="SourceGraphic" in2="BackgroundImageFix" result="shape"/>
<feColorMatrix in="SourceAlpha" type="matrix" values="0 0 0 0 0 0 0 0 0 0 0 0 0 0 0 0 0 0 127 0" result="hardAlpha"/>
<feOffset dy="4"/>
<feGaussianBlur stdDeviation="2"/>
<feComposite in2="hardAlpha" operator="arithmetic" k2="-1" k3="1"/>
<feColorMatrix type="matrix" values="0 0 0 0 0 0 0 0 0 0 0 0 0 0 0 0 0 0 0.25 0"/>
<feBlend mode="normal" in2="shape" result="effect1_innerShadow_342_20"/>
</filter>
</defs>
</svg>
