<svg width="58" height="54" viewBox="0 0 58 54" fill="none" xmlns="http://www.w3.org/2000/svg">
<path d="M47.7441 0.288208C50.252 0.288208 52.6572 1.22323 54.4305 2.88758C56.2039 4.55192 57.2001 6.80926 57.2001 9.16301V44.6622C57.2001 47.0159 56.2039 49.2733 54.4305 50.9376C52.6572 52.602 50.252 53.537 47.7441 53.537H9.91991C7.41201 53.537 5.00683 52.602 3.23348 50.9376C1.46013 49.2733 0.463867 47.0159 0.463867 44.6622V9.16301C0.463867 6.80926 1.46013 4.55192 3.23348 2.88758C5.00683 1.22323 7.41201 0.288208 9.91991 0.288208H47.7441ZM47.7441 6.20474H9.91991C9.08395 6.20474 8.28222 6.51641 7.6911 7.0712C7.09998 7.62598 6.7679 8.37843 6.7679 9.16301V44.6622C6.7679 45.4468 7.09998 46.1992 7.6911 46.754C8.28222 47.3088 9.08395 47.6205 9.91991 47.6205H47.7441C48.5801 47.6205 49.3818 47.3088 49.9729 46.754C50.564 46.1992 50.8961 45.4468 50.8961 44.6622V9.16301C50.8961 8.37843 50.564 7.62598 49.9729 7.0712C49.3818 6.51641 48.5801 6.20474 47.7441 6.20474ZM16.2239 20.9961C16.996 20.9962 17.7411 21.2622 18.3181 21.7437C18.895 22.2252 19.2636 22.8886 19.3539 23.6082L19.376 23.9543V38.7457C19.3751 39.4997 19.0674 40.2249 18.5159 40.7732C17.9644 41.3214 17.2107 41.6514 16.4087 41.6956C15.6067 41.7398 14.8169 41.4949 14.2009 41.0109C13.5848 40.527 13.1889 39.8405 13.094 39.0918L13.0719 38.7457V23.9543C13.0719 23.1698 13.404 22.4173 13.9951 21.8625C14.5862 21.3077 15.388 20.9961 16.2239 20.9961ZM25.68 18.0378C26.4182 18.0377 27.133 18.2808 27.6998 18.7246C28.2666 19.1684 28.6494 19.7849 28.7816 20.4665C29.4158 20.1213 30.0716 19.8121 30.7453 19.5406C32.8477 18.6975 35.9965 18.2331 38.8396 19.0702C40.3306 19.514 41.8278 20.3423 42.9373 21.7534C43.9302 23.0107 44.466 24.5401 44.5732 26.2588L44.5921 26.9126V38.7457C44.5912 39.4997 44.2836 40.2249 43.7321 40.7732C43.1805 41.3214 42.4268 41.6514 41.6248 41.6956C40.8228 41.7398 40.0331 41.4949 39.417 41.0109C38.8009 40.527 38.405 39.8405 38.3101 39.0918L38.288 38.7457V26.9126C38.288 25.9364 38.0359 25.4808 37.872 25.2708C37.6367 24.9961 37.3125 24.8009 36.9484 24.7146C35.8515 24.3892 34.2724 24.5608 33.2228 24.9809C31.6467 25.6139 30.2031 26.6079 29.2197 27.5279L28.832 27.9184V38.7457C28.8311 39.4997 28.5235 40.2249 27.972 40.7732C27.4205 41.3214 26.6667 41.6514 25.8647 41.6956C25.0627 41.7398 24.273 41.4949 23.6569 41.0109C23.0409 40.527 22.6449 39.8405 22.55 39.0918L22.528 38.7457V20.9961C22.528 20.2115 22.8601 19.459 23.4512 18.9043C24.0423 18.3495 24.844 18.0378 25.68 18.0378ZM16.2239 12.1213C17.0599 12.1213 17.8616 12.4329 18.4528 12.9877C19.0439 13.5425 19.376 14.295 19.376 15.0795C19.376 15.8641 19.0439 16.6166 18.4528 17.1713C17.8616 17.7261 17.0599 18.0378 16.2239 18.0378C15.388 18.0378 14.5862 17.7261 13.9951 17.1713C13.404 16.6166 13.0719 15.8641 13.0719 15.0795C13.0719 14.295 13.404 13.5425 13.9951 12.9877C14.5862 12.4329 15.388 12.1213 16.2239 12.1213Z" fill="#51BFA6"/>
</svg>
