<svg width="57" height="51" viewBox="0 0 57 51" fill="none" xmlns="http://www.w3.org/2000/svg">
<g filter="url(#filter0_i_342_8)">
<path d="M28.5417 0.215088C13.1474 0.215088 0.678716 11.7264 0.678716 25.9387C0.675361 31.3384 2.51377 36.6021 5.93314 40.983C9.35251 45.3638 14.1792 48.6395 19.7286 50.3452C21.1218 50.569 21.6456 49.7973 21.6456 49.1208C21.6456 48.5111 21.6094 46.4867 21.6094 44.331C14.6102 45.522 12.7991 42.7568 12.2418 41.3085C11.927 40.5677 10.5701 38.286 9.38589 37.6738C8.41068 37.1927 7.01754 36.0017 9.34967 35.9709C11.5453 35.9374 13.1112 37.8358 13.635 38.6075C16.1427 42.4969 20.1466 41.4037 21.7487 40.7297C21.9939 39.0577 22.7239 37.9336 23.5263 37.2905C17.3268 36.6474 10.8487 34.4275 10.8487 24.5882C10.8487 21.7895 11.927 19.4769 13.7046 17.6737C13.426 17.0306 12.4508 14.3939 13.9833 10.8569C13.9833 10.8569 16.3154 10.183 21.6456 13.4962C23.9138 12.915 26.2574 12.6225 28.6113 12.6267C30.9797 12.6267 33.348 12.9148 35.5771 13.4936C40.9072 10.1495 43.2394 10.8595 43.2394 10.8595C44.7718 14.3965 43.7966 17.0332 43.518 17.6763C45.2929 19.4769 46.374 21.7586 46.374 24.5882C46.374 34.4609 39.8624 36.6474 33.6601 37.2905C34.6715 38.0931 35.5436 39.6365 35.5436 42.0494C35.5436 45.4886 35.5074 48.2539 35.5074 49.1233C35.5074 49.7973 36.0312 50.5999 37.4244 50.3426C42.9547 48.6182 47.7602 45.3362 51.1645 40.9585C54.5687 36.5808 56.4005 31.3277 56.4018 25.9387C56.4018 11.7264 43.9332 0.215088 28.5389 0.215088H28.5417Z" fill="#51BFA6"/>
</g>
<defs>
<filter id="filter0_i_342_8" x="0.678711" y="0.215088" width="55.7227" height="54.1768" filterUnits="userSpaceOnUse" color-interpolation-filters="sRGB">
<feFlood flood-opacity="0" result="BackgroundImageFix"/>
<feBlend mode="normal" in="SourceGraphic" in2="BackgroundImageFix" result="shape"/>
<feColorMatrix in="SourceAlpha" type="matrix" values="0 0 0 0 0 0 0 0 0 0 0 0 0 0 0 0 0 0 127 0" result="hardAlpha"/>
<feOffset dy="4"/>
<feGaussianBlur stdDeviation="2"/>
<feComposite in2="hardAlpha" operator="arithmetic" k2="-1" k3="1"/>
<feColorMatrix type="matrix" values="0 0 0 0 0 0 0 0 0 0 0 0 0 0 0 0 0 0 0.25 0"/>
<feBlend mode="normal" in2="shape" result="effect1_innerShadow_342_8"/>
</filter>
</defs>
</svg>
