<svg width="58" height="54" viewBox="0 0 58 54" fill="none" xmlns="http://www.w3.org/2000/svg">
<path d="M47.8437 0.751221C50.3516 0.751221 52.7568 1.68624 54.5301 3.35059C56.3035 5.01494 57.2997 7.27228 57.2997 9.62602V45.1252C57.2997 47.479 56.3035 49.7363 54.5301 51.4006C52.7568 53.065 50.3516 54 47.8437 54H10.0195C7.51162 54 5.10644 53.065 3.33309 51.4006C1.55974 49.7363 0.563477 47.479 0.563477 45.1252V9.62602C0.563477 7.27228 1.55974 5.01494 3.33309 3.35059C5.10644 1.68624 7.51162 0.751221 10.0195 0.751221H47.8437ZM47.8437 6.66775H10.0195C9.18356 6.66775 8.38183 6.97943 7.79071 7.53421C7.19959 8.08899 6.86751 8.84144 6.86751 9.62602V45.1252C6.86751 45.9098 7.19959 46.6622 7.79071 47.217C8.38183 47.7718 9.18356 48.0835 10.0195 48.0835H47.8437C48.6797 48.0835 49.4814 47.7718 50.0725 47.217C50.6636 46.6622 50.9957 45.9098 50.9957 45.1252V9.62602C50.9957 8.84144 50.6636 8.08899 50.0725 7.53421C49.4814 6.97943 48.6797 6.66775 47.8437 6.66775ZM16.3236 21.4591C17.0956 21.4592 17.8407 21.7252 18.4177 22.2067C18.9946 22.6882 19.3632 23.3516 19.4535 24.0712L19.4756 24.4174V39.2087C19.4747 39.9627 19.1671 40.6879 18.6155 41.2362C18.064 41.7845 17.3103 42.1144 16.5083 42.1586C15.7063 42.2028 14.9166 41.9579 14.3005 41.4739C13.6844 40.99 13.2885 40.3035 13.1936 39.5548L13.1715 39.2087V24.4174C13.1715 23.6328 13.5036 22.8803 14.0947 22.3255C14.6859 21.7708 15.4876 21.4591 16.3236 21.4591ZM25.7796 18.5008C26.5178 18.5007 27.2326 18.7438 27.7994 19.1876C28.3662 19.6315 28.749 20.2479 28.8812 20.9296C29.5154 20.5844 30.1712 20.2752 30.8449 20.0036C32.9473 19.1605 36.0961 18.6961 38.9393 19.5333C40.4302 19.977 41.9274 20.8053 43.0369 22.2164C44.0298 23.4737 44.5656 25.0031 44.6728 26.7218L44.6917 27.3756V39.2087C44.6908 39.9627 44.3832 40.6879 43.8317 41.2362C43.2802 41.7845 42.5264 42.1144 41.7244 42.1586C40.9224 42.2028 40.1327 41.9579 39.5166 41.4739C38.9005 40.99 38.5046 40.3035 38.4097 39.5548L38.3877 39.2087V27.3756C38.3877 26.3994 38.1355 25.9438 37.9716 25.7338C37.7363 25.4591 37.4121 25.2639 37.048 25.1776C35.9511 24.8522 34.372 25.0238 33.3224 25.4439C31.7464 26.0769 30.3027 27.0709 29.3193 27.9909L28.9316 28.3814V39.2087C28.9307 39.9627 28.6231 40.6879 28.0716 41.2362C27.5201 41.7845 26.7663 42.1144 25.9643 42.1586C25.1623 42.2028 24.3726 41.9579 23.7565 41.4739C23.1405 40.99 22.7445 40.3035 22.6496 39.5548L22.6276 39.2087V21.4591C22.6276 20.6745 22.9597 19.9221 23.5508 19.3673C24.1419 18.8125 24.9436 18.5008 25.7796 18.5008ZM16.3236 12.5843C17.1595 12.5843 17.9612 12.896 18.5524 13.4507C19.1435 14.0055 19.4756 14.758 19.4756 15.5426C19.4756 16.3271 19.1435 17.0796 18.5524 17.6344C17.9612 18.1891 17.1595 18.5008 16.3236 18.5008C15.4876 18.5008 14.6859 18.1891 14.0947 17.6344C13.5036 17.0796 13.1715 16.3271 13.1715 15.5426C13.1715 14.758 13.5036 14.0055 14.0947 13.4507C14.6859 12.896 15.4876 12.5843 16.3236 12.5843Z" fill="#51BFA6"/>
</svg>
