<svg width="57" height="51" viewBox="0 0 57 51" fill="none" xmlns="http://www.w3.org/2000/svg">
<g filter="url(#filter0_i_342_3)">
<path d="M28.651 0.775146C13.2568 0.775146 0.788091 12.2865 0.788091 26.4987C0.784736 31.8985 2.62314 37.1622 6.04251 41.543C9.46189 45.9239 14.2886 49.1995 19.838 50.9053C21.2311 51.1291 21.755 50.3574 21.755 49.6808C21.755 49.0712 21.7187 47.0467 21.7187 44.8911C14.7196 46.0821 12.9085 43.3168 12.3512 41.8686C12.0364 41.1277 10.6794 38.8461 9.49526 38.2338C8.52006 37.7528 7.12691 36.5618 9.45904 36.5309C11.6546 36.4975 13.2205 38.3959 13.7444 39.1676C16.252 43.057 20.2559 41.9638 21.8581 41.2898C22.1032 39.6178 22.8333 38.4936 23.6357 37.8506C17.4362 37.2075 10.9581 34.9875 10.9581 25.1482C10.9581 22.3495 12.0364 20.037 13.814 18.2337C13.5354 17.5907 12.5602 14.954 14.0926 11.417C14.0926 11.417 16.4248 10.743 21.755 14.0562C24.0232 13.475 26.3667 13.1825 28.7207 13.1868C31.0891 13.1868 33.4574 13.4749 35.6864 14.0537C41.0166 10.7096 43.3487 11.4196 43.3487 11.4196C44.8812 14.9566 43.906 17.5932 43.6274 18.2363C45.4022 20.037 46.4833 22.3187 46.4833 25.1482C46.4833 35.021 39.9718 37.2075 33.7695 37.8506C34.7809 38.6531 35.653 40.1965 35.653 42.6094C35.653 46.0487 35.6168 48.8139 35.6168 49.6834C35.6168 50.3574 36.1406 51.1599 37.5338 50.9027C43.0641 49.1783 47.8696 45.8962 51.2738 41.5185C54.6781 37.1408 56.5098 31.8878 56.5112 26.4987C56.5112 12.2865 44.0425 0.775146 28.6483 0.775146H28.651Z" fill="#51BFA6"/>
</g>
<defs>
<filter id="filter0_i_342_3" x="0.788086" y="0.775146" width="55.7227" height="54.1768" filterUnits="userSpaceOnUse" color-interpolation-filters="sRGB">
<feFlood flood-opacity="0" result="BackgroundImageFix"/>
<feBlend mode="normal" in="SourceGraphic" in2="BackgroundImageFix" result="shape"/>
<feColorMatrix in="SourceAlpha" type="matrix" values="0 0 0 0 0 0 0 0 0 0 0 0 0 0 0 0 0 0 127 0" result="hardAlpha"/>
<feOffset dy="4"/>
<feGaussianBlur stdDeviation="2"/>
<feComposite in2="hardAlpha" operator="arithmetic" k2="-1" k3="1"/>
<feColorMatrix type="matrix" values="0 0 0 0 0 0 0 0 0 0 0 0 0 0 0 0 0 0 0.25 0"/>
<feBlend mode="normal" in2="shape" result="effect1_innerShadow_342_3"/>
</filter>
</defs>
</svg>
