<svg width="58" height="54" viewBox="0 0 58 54" fill="none" xmlns="http://www.w3.org/2000/svg">
<path d="M47.7353 0.288208C50.2432 0.288208 52.6484 1.22323 54.4217 2.88758C56.1951 4.55192 57.1913 6.80926 57.1913 9.16301V44.6622C57.1913 47.0159 56.1951 49.2733 54.4217 50.9376C52.6484 52.602 50.2432 53.537 47.7353 53.537H9.91112C7.40322 53.537 4.99804 52.602 3.22469 50.9376C1.45134 49.2733 0.455078 47.0159 0.455078 44.6622V9.16301C0.455078 6.80926 1.45134 4.55192 3.22469 2.88758C4.99804 1.22323 7.40322 0.288208 9.91112 0.288208H47.7353ZM47.7353 6.20474H9.91112C9.07516 6.20474 8.27343 6.51641 7.68231 7.0712C7.09119 7.62598 6.75911 8.37843 6.75911 9.16301V44.6622C6.75911 45.4468 7.09119 46.1992 7.68231 46.754C8.27343 47.3088 9.07516 47.6205 9.91112 47.6205H47.7353C48.5713 47.6205 49.373 47.3088 49.9641 46.754C50.5552 46.1992 50.8873 45.4468 50.8873 44.6622V9.16301C50.8873 8.37843 50.5552 7.62598 49.9641 7.0712C49.373 6.51641 48.5713 6.20474 47.7353 6.20474ZM16.2152 20.9961C16.9872 20.9962 17.7323 21.2622 18.3093 21.7437C18.8862 22.2252 19.2548 22.8886 19.3451 23.6082L19.3672 23.9543V38.7457C19.3663 39.4997 19.0587 40.2249 18.5071 40.7732C17.9556 41.3214 17.2019 41.6514 16.3999 41.6956C15.5979 41.7398 14.8082 41.4949 14.1921 41.0109C13.576 40.527 13.1801 39.8405 13.0852 39.0918L13.0631 38.7457V23.9543C13.0631 23.1698 13.3952 22.4173 13.9863 21.8625C14.5775 21.3077 15.3792 20.9961 16.2152 20.9961ZM25.6712 18.0378C26.4094 18.0377 27.1242 18.2808 27.691 18.7246C28.2578 19.1684 28.6406 19.7849 28.7728 20.4665C29.407 20.1213 30.0628 19.8121 30.7365 19.5406C32.8389 18.6975 35.9877 18.2331 38.8309 19.0702C40.3218 19.514 41.819 20.3423 42.9285 21.7534C43.9214 23.0107 44.4572 24.5401 44.5644 26.2588L44.5833 26.9126V38.7457C44.5824 39.4997 44.2748 40.2249 43.7233 40.7732C43.1718 41.3214 42.418 41.6514 41.616 41.6956C40.814 41.7398 40.0243 41.4949 39.4082 41.0109C38.7921 40.527 38.3962 39.8405 38.3013 39.0918L38.2793 38.7457V26.9126C38.2793 25.9364 38.0271 25.4808 37.8632 25.2708C37.6279 24.9961 37.3037 24.8009 36.9397 24.7146C35.8427 24.3892 34.2636 24.5608 33.214 24.9809C31.638 25.6139 30.1943 26.6079 29.2109 27.5279L28.8232 27.9184V38.7457C28.8223 39.4997 28.5147 40.2249 27.9632 40.7732C27.4117 41.3214 26.6579 41.6514 25.8559 41.6956C25.0539 41.7398 24.2642 41.4949 23.6481 41.0109C23.0321 40.527 22.6361 39.8405 22.5412 39.0918L22.5192 38.7457V20.9961C22.5192 20.2115 22.8513 19.459 23.4424 18.9043C24.0335 18.3495 24.8352 18.0378 25.6712 18.0378ZM16.2152 12.1213C17.0511 12.1213 17.8528 12.4329 18.444 12.9877C19.0351 13.5425 19.3672 14.295 19.3672 15.0795C19.3672 15.8641 19.0351 16.6166 18.444 17.1713C17.8528 17.7261 17.0511 18.0378 16.2152 18.0378C15.3792 18.0378 14.5775 17.7261 13.9863 17.1713C13.3952 16.6166 13.0631 15.8641 13.0631 15.0795C13.0631 14.295 13.3952 13.5425 13.9863 12.9877C14.5775 12.4329 15.3792 12.1213 16.2152 12.1213Z" fill="#51BFA6"/>
</svg>
