<svg width="58" height="54" viewBox="0 0 58 54" fill="none" xmlns="http://www.w3.org/2000/svg">
<path d="M47.7353 0.191162C50.2432 0.191162 52.6484 1.12618 54.4217 2.79053C56.1951 4.45488 57.1913 6.71222 57.1913 9.06596V44.5652C57.1913 46.9189 56.1951 49.1762 54.4217 50.8406C52.6484 52.5049 50.2432 53.44 47.7353 53.44H9.91112C7.40322 53.44 4.99804 52.5049 3.22469 50.8406C1.45134 49.1762 0.455078 46.9189 0.455078 44.5652V9.06596C0.455078 6.71222 1.45134 4.45488 3.22469 2.79053C4.99804 1.12618 7.40322 0.191162 9.91112 0.191162H47.7353ZM47.7353 6.10769H9.91112C9.07516 6.10769 8.27343 6.41937 7.68231 6.97415C7.09119 7.52893 6.75911 8.28138 6.75911 9.06596V44.5652C6.75911 45.3497 7.09119 46.1022 7.68231 46.657C8.27343 47.2118 9.07516 47.5234 9.91112 47.5234H47.7353C48.5713 47.5234 49.373 47.2118 49.9641 46.657C50.5552 46.1022 50.8873 45.3497 50.8873 44.5652V9.06596C50.8873 8.28138 50.5552 7.52893 49.9641 6.97415C49.373 6.41937 48.5713 6.10769 47.7353 6.10769ZM16.2152 20.899C16.9872 20.8991 17.7323 21.1651 18.3093 21.6466C18.8862 22.1281 19.2548 22.7916 19.3451 23.5112L19.3672 23.8573V38.6486C19.3663 39.4026 19.0587 40.1279 18.5071 40.6761C17.9556 41.2244 17.2019 41.5543 16.3999 41.5985C15.5979 41.6427 14.8082 41.3978 14.1921 40.9139C13.576 40.4299 13.1801 39.7435 13.0852 38.9947L13.0631 38.6486V23.8573C13.0631 23.0727 13.3952 22.3203 13.9863 21.7655C14.5775 21.2107 15.3792 20.899 16.2152 20.899ZM25.6712 17.9408C26.4094 17.9407 27.1242 18.1837 27.691 18.6276C28.2578 19.0714 28.6406 19.6879 28.7728 20.3695C29.407 20.0243 30.0628 19.7151 30.7365 19.4436C32.8389 18.6005 35.9877 18.136 38.8309 18.9732C40.3218 19.4169 41.819 20.2452 42.9285 21.6563C43.9214 22.9136 44.4572 24.443 44.5644 26.1618L44.5833 26.8156V38.6486C44.5824 39.4026 44.2748 40.1279 43.7233 40.6761C43.1718 41.2244 42.418 41.5543 41.616 41.5985C40.814 41.6427 40.0243 41.3978 39.4082 40.9139C38.7921 40.4299 38.3962 39.7435 38.3013 38.9947L38.2793 38.6486V26.8156C38.2793 25.8393 38.0271 25.3838 37.8632 25.1737C37.6279 24.8991 37.3037 24.7038 36.9397 24.6176C35.8427 24.2922 34.2636 24.4637 33.214 24.8838C31.638 25.5169 30.1943 26.5109 29.2109 27.4309L28.8232 27.8214V38.6486C28.8223 39.4026 28.5147 40.1279 27.9632 40.6761C27.4117 41.2244 26.6579 41.5543 25.8559 41.5985C25.0539 41.6427 24.2642 41.3978 23.6481 40.9139C23.0321 40.4299 22.6361 39.7435 22.5412 38.9947L22.5192 38.6486V20.899C22.5192 20.1144 22.8513 19.362 23.4424 18.8072C24.0335 18.2524 24.8352 17.9408 25.6712 17.9408ZM16.2152 12.0242C17.0511 12.0242 17.8528 12.3359 18.444 12.8907C19.0351 13.4455 19.3672 14.1979 19.3672 14.9825C19.3672 15.7671 19.0351 16.5195 18.444 17.0743C17.8528 17.6291 17.0511 17.9408 16.2152 17.9408C15.3792 17.9408 14.5775 17.6291 13.9863 17.0743C13.3952 16.5195 13.0631 15.7671 13.0631 14.9825C13.0631 14.1979 13.3952 13.4455 13.9863 12.8907C14.5775 12.3359 15.3792 12.0242 16.2152 12.0242Z" fill="#51BFA6"/>
</svg>
