<svg width="57" height="51" viewBox="0 0 57 51" fill="none" xmlns="http://www.w3.org/2000/svg">
<g filter="url(#filter0_i_342_12)">
<path d="M28.8483 0.312195C13.454 0.312195 0.985356 11.8235 0.985356 26.0358C0.982001 31.4356 2.82041 36.6992 6.23978 41.0801C9.65916 45.461 14.4859 48.7366 20.0353 50.4423C21.4284 50.6661 21.9522 49.8944 21.9522 49.2179C21.9522 48.6082 21.916 46.5838 21.916 44.4281C14.9168 45.6191 13.1057 42.8539 12.5485 41.4056C12.2336 40.6648 10.8767 38.3831 9.69253 37.7709C8.71733 37.2899 7.32418 36.0988 9.65631 36.068C11.8519 36.0345 13.4178 37.9329 13.9416 38.7046C16.4493 42.5941 20.4532 41.5008 22.0553 40.8268C22.3005 39.1548 23.0305 38.0307 23.833 37.3876C17.6335 36.7445 11.1553 34.5246 11.1553 24.6853C11.1553 21.8866 12.2336 19.574 14.0113 17.7708C13.7327 17.1277 12.7575 14.491 14.2899 10.954C14.2899 10.954 16.622 10.2801 21.9522 13.5933C24.2204 13.0121 26.564 12.7196 28.918 12.7238C31.2863 12.7238 33.6547 13.0119 35.8837 13.5907C41.2139 10.2466 43.546 10.9566 43.546 10.9566C45.0785 14.4936 44.1033 17.1303 43.8246 17.7734C45.5995 19.574 46.6806 21.8557 46.6806 24.6853C46.6806 34.558 40.169 36.7445 33.9667 37.3876C34.9782 38.1902 35.8503 39.7336 35.8503 42.1465C35.8503 45.5857 35.814 48.351 35.814 49.2205C35.814 49.8944 36.3379 50.697 37.731 50.4397C43.2614 48.7153 48.0668 45.4333 51.4711 41.0556C54.8754 36.6779 56.7071 31.4249 56.7085 26.0358C56.7085 11.8235 44.2398 0.312195 28.8455 0.312195H28.8483Z" fill="#51BFA6"/>
</g>
<defs>
<filter id="filter0_i_342_12" x="0.985352" y="0.312195" width="55.7227" height="54.1768" filterUnits="userSpaceOnUse" color-interpolation-filters="sRGB">
<feFlood flood-opacity="0" result="BackgroundImageFix"/>
<feBlend mode="normal" in="SourceGraphic" in2="BackgroundImageFix" result="shape"/>
<feColorMatrix in="SourceAlpha" type="matrix" values="0 0 0 0 0 0 0 0 0 0 0 0 0 0 0 0 0 0 127 0" result="hardAlpha"/>
<feOffset dy="4"/>
<feGaussianBlur stdDeviation="2"/>
<feComposite in2="hardAlpha" operator="arithmetic" k2="-1" k3="1"/>
<feColorMatrix type="matrix" values="0 0 0 0 0 0 0 0 0 0 0 0 0 0 0 0 0 0 0.25 0"/>
<feBlend mode="normal" in2="shape" result="effect1_innerShadow_342_12"/>
</filter>
</defs>
</svg>
