<svg width="58" height="54" viewBox="0 0 58 54" fill="none" xmlns="http://www.w3.org/2000/svg">
<path d="M48.041 0.288208C50.5489 0.288208 52.954 1.22323 54.7274 2.88758C56.5008 4.55192 57.497 6.80926 57.497 9.16301V44.6622C57.497 47.0159 56.5008 49.2733 54.7274 50.9376C52.954 52.602 50.5489 53.537 48.041 53.537H10.2168C7.70889 53.537 5.30371 52.602 3.53035 50.9376C1.757 49.2733 0.760742 47.0159 0.760742 44.6622V9.16301C0.760742 6.80926 1.757 4.55192 3.53035 2.88758C5.30371 1.22323 7.70889 0.288208 10.2168 0.288208H48.041ZM48.041 6.20474H10.2168C9.38082 6.20474 8.57909 6.51641 7.98798 7.0712C7.39686 7.62598 7.06477 8.37843 7.06477 9.16301V44.6622C7.06477 45.4468 7.39686 46.1992 7.98798 46.754C8.57909 47.3088 9.38082 47.6205 10.2168 47.6205H48.041C48.8769 47.6205 49.6787 47.3088 50.2698 46.754C50.8609 46.1992 51.193 45.4468 51.193 44.6622V9.16301C51.193 8.37843 50.8609 7.62598 50.2698 7.0712C49.6787 6.51641 48.8769 6.20474 48.041 6.20474ZM16.5208 20.9961C17.2929 20.9962 18.038 21.2622 18.6149 21.7437C19.1919 22.2252 19.5604 22.8886 19.6508 23.6082L19.6728 23.9543V38.7457C19.6719 39.4997 19.3643 40.2249 18.8128 40.7732C18.2613 41.3214 17.5075 41.6514 16.7055 41.6956C15.9035 41.7398 15.1138 41.4949 14.4978 41.0109C13.8817 40.527 13.4858 39.8405 13.3909 39.0918L13.3688 38.7457V23.9543C13.3688 23.1698 13.7009 22.4173 14.292 21.8625C14.8831 21.3077 15.6849 20.9961 16.5208 20.9961ZM25.9769 18.0378C26.715 18.0377 27.4299 18.2808 27.9967 18.7246C28.5635 19.1684 28.9463 19.7849 29.0784 20.4665C29.7127 20.1213 30.3685 19.8121 31.0422 19.5406C33.1445 18.6975 36.2934 18.2331 39.1365 19.0702C40.6274 19.514 42.1246 20.3423 43.2341 21.7534C44.227 23.0107 44.7629 24.5401 44.87 26.2588L44.889 26.9126V38.7457C44.8881 39.4997 44.5804 40.2249 44.0289 40.7732C43.4774 41.3214 42.7237 41.6514 41.9217 41.6956C41.1197 41.7398 40.3299 41.4949 39.7139 41.0109C39.0978 40.527 38.7019 39.8405 38.607 39.0918L38.5849 38.7457V26.9126C38.5849 25.9364 38.3328 25.4808 38.1689 25.2708C37.9336 24.9961 37.6094 24.8009 37.2453 24.7146C36.1484 24.3892 34.5693 24.5608 33.5196 24.9809C31.9436 25.6139 30.5 26.6079 29.5166 27.5279L29.1289 27.9184V38.7457C29.128 39.4997 28.8204 40.2249 28.2689 40.7732C27.7174 41.3214 26.9636 41.6514 26.1616 41.6956C25.3596 41.7398 24.5699 41.4949 23.9538 41.0109C23.3377 40.527 22.9418 39.8405 22.8469 39.0918L22.8248 38.7457V20.9961C22.8248 20.2115 23.1569 19.459 23.7481 18.9043C24.3392 18.3495 25.1409 18.0378 25.9769 18.0378ZM16.5208 12.1213C17.3568 12.1213 18.1585 12.4329 18.7496 12.9877C19.3407 13.5425 19.6728 14.295 19.6728 15.0795C19.6728 15.8641 19.3407 16.6166 18.7496 17.1713C18.1585 17.7261 17.3568 18.0378 16.5208 18.0378C15.6849 18.0378 14.8831 17.7261 14.292 17.1713C13.7009 16.6166 13.3688 15.8641 13.3688 15.0795C13.3688 14.295 13.7009 13.5425 14.292 12.9877C14.8831 12.4329 15.6849 12.1213 16.5208 12.1213Z" fill="#51BFA6"/>
</svg>
